<svg width="144" height="144" viewBox="0 0 144 144" xmlns="http://www.w3.org/2000/svg" aria-hidden="true" role="img">
  <defs>
    <!-- Gradient for background -->
    <linearGradient id="grad144" x1="0" y1="0" x2="1" y2="0">
      <stop offset="0" stop-color="#3b82f6"/>
      <stop offset="1" stop-color="#8e4ae8ff"/>
    </linearGradient>
  </defs>

  <!-- Rounded background -->
  <rect x="0" y="0" width="144" height="144" rx="27" ry="27" fill="url(#grad144)"/>

  <!-- BotMessageSquare icon (white) -->
  <g transform="translate(18,18)" fill="none" stroke="#ffffff" stroke-width="9" stroke-linecap="round" stroke-linejoin="round">
    <path d="M54 27V8.9964H35.964"/>
    <path d="M67.5 49.464v8.964"/>
    <path d="M8.964 54h8.964"/>
    <path d="M89.964 54h8.964"/>
    <path d="M89.964 72.036a8.964 8.964 0 0 1-8.964 8.964H39.744a8.964 8.964 0 0 0-6.372 2.592l-9.936 9.936A3.1968 3.1968 0 0 1 18.036 91.25999999999999V35.964a8.964 8.964 0 0 1 8.964-8.964h54a8.964 8.964 0 0 1 8.964 8.964z"/>
    <path d="M40.5 49.464v8.964"/>
  </g>
</svg>