<svg width="192" height="192" viewBox="0 0 192 192" xmlns="http://www.w3.org/2000/svg" aria-hidden="true" role="img">
  <defs>
    <!-- Gradient for background -->
    <linearGradient id="grad192" x1="0" y1="0" x2="1" y2="0">
      <stop offset="0" stop-color="#3b82f6"/>
      <stop offset="1" stop-color="#8e4ae8ff"/>
    </linearGradient>
  </defs>

  <!-- Rounded background -->
  <rect x="0" y="0" width="192" height="192" rx="36" ry="36" fill="url(#grad192)"/>

  <!-- BotMessageSquare icon (white) -->
  <g transform="translate(24,24)" fill="none" stroke="#ffffff" stroke-width="12" stroke-linecap="round" stroke-linejoin="round">
    <path d="M72 36V11.9952H47.952000000000005"/>
    <path d="M90 65.952v11.952"/>
    <path d="M11.952 72h11.952"/>
    <path d="M119.952 72h11.952"/>
    <path d="M119.952 96.048a11.952 11.952 0 0 1-11.952 11.952H52.992a11.952 11.952 0 0 0-8.495999999999999 3.456l-13.248 13.248A4.2624 4.2624 0 0 1 24.048000000000002 121.67999999999999V47.952000000000005a11.952 11.952 0 0 1 11.952-11.952h72a11.952 11.952 0 0 1 11.952 11.952z"/>
    <path d="M54 65.952v11.952"/>
  </g>
</svg>