<svg width="96" height="96" viewBox="0 0 96 96" xmlns="http://www.w3.org/2000/svg" aria-hidden="true" role="img">
  <defs>
    <!-- Gradient for background -->
    <linearGradient id="grad96" x1="0" y1="0" x2="1" y2="0">
      <stop offset="0" stop-color="#3b82f6"/>
      <stop offset="1" stop-color="#8e4ae8ff"/>
    </linearGradient>
  </defs>

  <!-- Rounded background -->
  <rect x="0" y="0" width="96" height="96" rx="18" ry="18" fill="url(#grad96)"/>

  <!-- BotMessageSquare icon (white) -->
  <g transform="translate(12,12)" fill="none" stroke="#ffffff" stroke-width="6" stroke-linecap="round" stroke-linejoin="round">
    <path d="M36 18V5.9976H23.976000000000003"/>
    <path d="M45 32.976v5.976"/>
    <path d="M5.976 36h5.976"/>
    <path d="M59.976 36h5.976"/>
    <path d="M59.976 48.024a5.976 5.976 0 0 1-5.976 5.976H26.496a5.976 5.976 0 0 0-4.247999999999999 1.728l-6.624 6.624A2.1312 2.1312 0 0 1 12.024000000000001 60.839999999999996V23.976000000000003a5.976 5.976 0 0 1 5.976-5.976h36a5.976 5.976 0 0 1 5.976 5.976z"/>
    <path d="M27 32.976v5.976"/>
  </g>
</svg>