<svg width="32" height="32" viewBox="0 0 32 32" xmlns="http://www.w3.org/2000/svg" aria-hidden="true" role="img">
  <defs>
    <!-- Gradient for background -->
    <linearGradient id="grad" x1="0" y1="0" x2="1" y2="0">
      <stop offset="0" stop-color="#3b82f6"/>
      <stop offset="1" stop-color="#8e4ae8ff"/>
    </linearGradient>
  </defs>

  <!-- Rounded background -->
  <rect x="0" y="0" width="32" height="32" rx="6" ry="6" fill="url(#grad)"/>

  <!-- BotMessageSquare icon (white) -->
  <g transform="translate(4,4)" fill="none" stroke="#ffffff" stroke-width="2" stroke-linecap="round" stroke-linejoin="round">
    <path d="M12 6V2H8"/>
    <path d="M15 11v2"/>
    <path d="M2 12h2"/>
    <path d="M20 12h2"/>
    <path d="M20 16a2 2 0 0 1-2 2H8.828a2 2 0 0 0-1.414.586l-2.202 2.202A.71.71 0 0 1 4 20.286V8a2 2 0 0 1 2-2h12a2 2 0 0 1 2 2z"/>
    <path d="M9 11v2"/>
  </g>
</svg>
